<svg xmlns="http://www.w3.org/2000/svg" width="29.8" height="51.128" viewBox="0 0 29.8 51.128">
  <g id="Angle_left_font_awesome.svg-_1_" transform="translate(29.799 51.128) rotate(180)">
    <path id="Path_3" data-name="Path 3" d="M25.2.022a2.163,2.163,0,0,0-.329.142,1.618,1.618,0,0,0-.518.391c-.866.818-15.274,15.219-20.27,20.259C2.048,22.87.648,24.309.269,24.734a.833.833,0,0,0-.255.546A2.086,2.086,0,0,0,.1,26.15c.151.318,2.3,2.5,12.312,12.516,6.033,6.034,8.736,8.723,10.869,10.812a10.772,10.772,0,0,0,1.626,1.5,1.53,1.53,0,0,0,1.479-.087,36.592,36.592,0,0,0,3.107-3.085,1.465,1.465,0,0,0,.259-.524,2.254,2.254,0,0,0,.009-.831c-.064-.228-.084-.255-.511-.7-1.3-1.362-5.042-5.134-12.729-12.832l-7.337-7.35,7.65-7.655c7.192-7.2,9.563-9.579,11.424-11.487a9.76,9.76,0,0,0,1.395-1.52,1.514,1.514,0,0,0,.145-.621,1.243,1.243,0,0,0-.2-.836,39.107,39.107,0,0,0-3.061-3.1A1.338,1.338,0,0,0,25.576,0,1.488,1.488,0,0,0,25.2.022Z" transform="translate(0 0)"/>
  </g>
</svg>

<svg xmlns="http://www.w3.org/2000/svg" width="29.8" height="51.128" viewBox="0 0 29.8 51.128">
  <g id="Angle_left_font_awesome.svg-_1_" transform="translate(0 0)">
    <path id="Path_3" data-name="Path 3" d="M25.2.022a2.163,2.163,0,0,0-.329.142,1.618,1.618,0,0,0-.518.391c-.866.818-15.274,15.219-20.27,20.259C2.048,22.87.648,24.309.269,24.734a.833.833,0,0,0-.255.546A2.086,2.086,0,0,0,.1,26.15c.151.318,2.3,2.5,12.312,12.516,6.033,6.034,8.736,8.723,10.869,10.812a10.772,10.772,0,0,0,1.626,1.5,1.53,1.53,0,0,0,1.479-.087,36.592,36.592,0,0,0,3.107-3.085,1.465,1.465,0,0,0,.259-.524,2.254,2.254,0,0,0,.009-.831c-.064-.228-.084-.255-.511-.7-1.3-1.362-5.042-5.134-12.729-12.832l-7.337-7.35,7.65-7.655c7.192-7.2,9.563-9.579,11.424-11.487a9.76,9.76,0,0,0,1.395-1.52,1.514,1.514,0,0,0,.145-.621,1.243,1.243,0,0,0-.2-.836,39.107,39.107,0,0,0-3.061-3.1A1.338,1.338,0,0,0,25.576,0,1.488,1.488,0,0,0,25.2.022Z" transform="translate(0 0)"/>
  </g>
</svg>
